<svg width="24" xmlns="http://www.w3.org/2000/svg" height="24" id="screenshot-a719a1ad-9cf5-8033-8007-f862b4391b04" viewBox="0 0 24 24" xmlns:xlink="http://www.w3.org/1999/xlink" fill="none" version="1.1"><g id="shape-a719a1ad-9cf5-8033-8007-f862b4391b04" width="32" height="32" rx="0" ry="0" style="fill: rgb(0, 0, 0);"><g id="shape-a719a1ad-9cf5-8033-8007-f862b4391b05" style="display: none;"><g class="fills" id="fills-a719a1ad-9cf5-8033-8007-f862b4391b05"><rect width="24" height="24" x="0" transform="matrix(1.000000, 0.000000, 0.000000, 1.000000, 0.000000, 0.000000)" style="fill: none;" ry="0" fill="none" rx="0" y="0"/></g></g><g id="shape-a719a1ad-9cf5-8033-8007-f862b4391b06"><g class="fills" id="fills-a719a1ad-9cf5-8033-8007-f862b4391b06"><path d="M19.5,3.1875L18,3.1875C17.275146484375,3.1875,16.6875,3.775146484375,16.6875,4.5L16.6875,16.5C16.6875,17.224853515625,17.275146484375,17.8125,18,17.8125L19.5,17.8125C20.224853515625,17.8125,20.8125,17.224853515625,20.8125,16.5L20.8125,4.5C20.811279296875,3.775634765625,20.224365234375,3.188720703125,19.5,3.1875M19.6875,16.5C19.6875,16.603515625,19.603515625,16.6875,19.5,16.6875L18,16.6875C17.896484375,16.6875,17.8125,16.603515625,17.8125,16.5L17.8125,4.5C17.8125,4.396484375,17.896484375,4.3125,18,4.3125L19.5,4.3125C19.603515625,4.3125,19.6875,4.396484375,19.6875,4.5ZM11.25,17.8125L12.75,17.8125C13.474853515625,17.8125,14.0625,17.224853515625,14.0625,16.5L14.0625,10.5C14.0625,9.775146484375,13.474853515625,9.1875,12.75,9.1875L11.25,9.1875C10.525146484375,9.1875,9.9375,9.775146484375,9.9375,10.5L9.9375,16.5C9.9375,17.224853515625,10.525146484375,17.8125,11.25,17.8125M11.0625,10.5C11.0625,10.396484375,11.146484375,10.3125,11.25,10.3125L12.75,10.3125C12.853515625,10.3125,12.9375,10.396484375,12.9375,10.5L12.9375,16.5C12.9375,16.603515625,12.853515625,16.6875,12.75,16.6875L11.25,16.6875C11.146484375,16.6875,11.0625,16.603515625,11.0625,16.5ZM4.50537109375,17.8125L6.00537109375,17.8125C6.72998046875,17.8125,7.31787109375,17.224853515625,7.31787109375,16.5L7.31787109375,6.75C7.31787109375,6.025146484375,6.72998046875,5.4375,6.00537109375,5.4375L4.50537109375,5.4375C3.7802734375,5.4375,3.19287109375,6.025146484375,3.19287109375,6.75L3.19287109375,16.5C3.19287109375,17.224853515625,3.7802734375,17.8125,4.50537109375,17.8125M4.31787109375,6.75C4.31787109375,6.646484375,4.401611328125,6.5625,4.50537109375,6.5625L6.00537109375,6.5625C6.10888671875,6.5625,6.19287109375,6.646484375,6.19287109375,6.75L6.19287109375,16.5C6.19287109375,16.603515625,6.10888671875,16.6875,6.00537109375,16.6875L4.50537109375,16.6875C4.401611328125,16.6875,4.31787109375,16.603515625,4.31787109375,16.5ZM20.25,19.6875L3.75,19.6875C3.439208984375,19.6875,3.1875,19.9393310546875,3.1875,20.25C3.1875,20.5606689453125,3.439208984375,20.8125,3.75,20.8125L20.25,20.8125C20.560546875,20.8125,20.8125,20.5606689453125,20.8125,20.25C20.8125,19.9393310546875,20.560546875,19.6875,20.25,19.6875"/></g></g></g></svg>