<svg width="24" xmlns="http://www.w3.org/2000/svg" height="24" id="screenshot-a719a1ad-9cf5-8033-8007-f86e8c8dc0ae" viewBox="0 0 24 24" xmlns:xlink="http://www.w3.org/1999/xlink" fill="none" version="1.1"><g id="shape-a719a1ad-9cf5-8033-8007-f86e8c8dc0ae" width="32" height="32" rx="0" ry="0" style="fill: rgb(0, 0, 0);"><g id="shape-a719a1ad-9cf5-8033-8007-f86e8c8dc0af" style="display: none;"><g class="fills" id="fills-a719a1ad-9cf5-8033-8007-f86e8c8dc0af"><rect width="24" height="24" x="0" transform="matrix(1.000000, 0.000000, 0.000000, 1.000000, 0.000000, 0.000000)" style="fill: none;" ry="0" fill="none" rx="0" y="0"/></g></g><g id="shape-a719a1ad-9cf5-8033-8007-f86e8c8dc0b0"><g class="fills" id="fills-a719a1ad-9cf5-8033-8007-f86e8c8dc0b0"><path d="M19.8974609375,9.35247802734375L12.3974609375,1.85247802734375C12.17724609375,1.6343994140625,11.822509765625,1.6343994140625,11.6025390625,1.85247802734375L4.1025390625,9.35247802734375C3.951904296875,9.49273681640625,3.89013671875,9.70391845703125,3.94091796875,9.9031982421875C3.991943359375,10.1025390625,4.1474609375,10.2581787109375,4.3466796875,10.30902099609375C4.546142578125,10.35992431640625,4.75732421875,10.2979736328125,4.8974609375,10.14752197265625L11.4375,3.60748291015625L11.4375,21.75C11.4375,21.950927734375,11.544677734375,22.13665771484375,11.71875,22.23712158203125C11.892578125,22.337646484375,12.107177734375,22.337646484375,12.28125,22.23712158203125C12.455078125,22.13665771484375,12.5625,21.950927734375,12.5625,21.75L12.5625,3.60748291015625L19.1025390625,10.14752197265625C19.29150390625,10.34222412109375,19.59228515625,10.37451171875,19.818115234375,10.22442626953125C20.04443359375,10.07427978515625,20.131103515625,9.784423828125,20.02490234375,9.53472900390625C19.994140625,9.46630859375,19.950927734375,9.40423583984375,19.8974609375,9.35174560546875"/></g></g></g></svg>