<svg width="24" xmlns="http://www.w3.org/2000/svg" height="24" id="screenshot-a719a1ad-9cf5-8033-8007-f862b4391b07" viewBox="0 0 24 24" xmlns:xlink="http://www.w3.org/1999/xlink" fill="none" version="1.1"><g id="shape-a719a1ad-9cf5-8033-8007-f862b4391b07" width="32" height="32" rx="0" ry="0" style="fill: rgb(0, 0, 0);"><g id="shape-a719a1ad-9cf5-8033-8007-f862b4391b08" style="display: none;"><g class="fills" id="fills-a719a1ad-9cf5-8033-8007-f862b4391b08"><rect width="24" height="24" x="0" transform="matrix(1.000000, 0.000000, 0.000000, 1.000000, 0.000000, 0.000000)" style="fill: none;" ry="0" fill="none" rx="0" y="0"/></g></g><g id="shape-a719a1ad-9cf5-8033-8007-f862b4391b09"><g class="fills" id="fills-a719a1ad-9cf5-8033-8007-f862b4391b09"><path d="M17.25,3.1875L6.75,3.1875C4.783203125,3.1895751953125,3.189453125,4.7833251953125,3.1875,6.75L3.1875,17.25C3.18994140625,19.2164306640625,4.783447265625,20.81005859375,6.75,20.8125L17.25,20.8125C19.21630859375,20.81005859375,20.81005859375,19.2164306640625,20.8125,17.25L20.8125,6.75C20.81005859375,4.7835693359375,19.21630859375,3.18994140625,17.25,3.1875M19.6875,17.25C19.685791015625,18.5955810546875,18.595458984375,19.68585205078125,17.25,19.6875L6.75,19.6875C5.404296875,19.68585205078125,4.314208984375,18.5955810546875,4.3125,17.25L4.3125,6.75C4.314208984375,5.4044189453125,5.404296875,4.31414794921875,6.75,4.3125L17.25,4.3125C18.595458984375,4.31414794921875,19.685791015625,5.4044189453125,19.6875,6.75ZM12,6.9375C10.4697265625,6.93621826171875,9.021484375,7.62908935546875,8.0625,8.82147216796875L8.0625,7.5C8.0625,7.1893310546875,7.810546875,6.9375,7.5,6.9375C7.189208984375,6.9375,6.9375,7.1893310546875,6.9375,7.5L6.9375,10.5C6.9375,10.8106689453125,7.189208984375,11.0625,7.5,11.0625L10.5,11.0625C10.810546875,11.0625,11.0625,10.8106689453125,11.0625,10.5C11.0625,10.1893310546875,10.810546875,9.9375,10.5,9.9375L8.64599609375,9.9375C9.610107421875,8.3720703125,11.529541015625,7.6826171875,13.26953125,8.2769775390625C15.00927734375,8.87127685546875,16.106201171875,10.5909423828125,15.910888671875,12.41912841796875C15.7158203125,14.247314453125,14.28125,15.697021484375,12.455078125,15.91094970703125C10.629150390625,16.1248779296875,8.898193359375,15.046142578125,8.285888671875,13.3125C8.222900390625,13.1356201171875,8.076171875,13.001708984375,7.894287109375,12.95526123046875C7.71240234375,12.90875244140625,7.519287109375,12.955810546875,7.379150390625,13.080810546875C7.209716796875,13.2335205078125,7.1494140625,13.47344970703125,7.226318359375,13.688232421875C8.084228515625,16.115478515625,10.62744140625,17.5120849609375,13.135986328125,16.9339599609375C15.644775390625,16.3558349609375,17.31982421875,13.9869384765625,17.029296875,11.428955078125C16.738525390625,8.87109375,14.57421875,6.938720703125,12,6.938232421875"/></g></g></g></svg>