<svg width="24" xmlns="http://www.w3.org/2000/svg" height="24" id="screenshot-a719a1ad-9cf5-8033-8007-f862b4391b01" viewBox="0 0 24 24" xmlns:xlink="http://www.w3.org/1999/xlink" fill="none" version="1.1"><g id="shape-a719a1ad-9cf5-8033-8007-f862b4391b01" width="32" height="32" rx="0" ry="0" style="fill: rgb(0, 0, 0);"><g id="shape-a719a1ad-9cf5-8033-8007-f862b4391b02" style="display: none;"><g class="fills" id="fills-a719a1ad-9cf5-8033-8007-f862b4391b02"><rect width="24" height="24" x="0" transform="matrix(1.000000, 0.000000, 0.000000, 1.000000, 0.000000, 0.000000)" style="fill: none;" ry="0" fill="none" rx="0" y="0"/></g></g><g id="shape-a719a1ad-9cf5-8033-8007-f862b4391b03"><g class="fills" id="fills-a719a1ad-9cf5-8033-8007-f862b4391b03"><path d="M9,11.4232177734375L4.5,11.4232177734375C3.952392578125,11.4232177734375,3.42724609375,11.64093017578125,3.04052734375,12.02838134765625C2.653564453125,12.41583251953125,2.436767578125,12.94122314453125,2.4375,13.48870849609375L2.4375,19.4969482421875C2.43994140625,20.635498046875,3.361328125,21.558349609375,4.5,21.5625L9,21.5625C10.138916015625,21.5592041015625,11.060791015625,20.6358642578125,11.0625,19.4969482421875L11.0625,13.48870849609375C11.060546875,12.34991455078125,10.138916015625,11.42657470703125,9,11.4224853515625M9.9375,19.4962158203125C9.93701171875,20.01422119140625,9.51806640625,20.43438720703125,9,20.43603515625L4.5,20.43603515625C4.251220703125,20.43603515625,4.012451171875,20.3370361328125,3.836669921875,20.160888671875C3.66064453125,19.9847412109375,3.56201171875,19.74591064453125,3.5625,19.4969482421875L3.5625,13.48870849609375C3.563232421875,12.9710693359375,3.982421875,12.5513916015625,4.5,12.54974365234375L9,12.54974365234375C9.248779296875,12.54974365234375,9.487548828125,12.64874267578125,9.663330078125,12.82489013671875C9.83935546875,13.00103759765625,9.937744140625,13.23980712890625,9.9375,13.48870849609375ZM19.5,15.17852783203125L15,15.17852783203125C14.452392578125,15.17852783203125,13.92724609375,15.396240234375,13.54052734375,15.78369140625C13.153564453125,16.1710205078125,12.936767578125,16.69647216796875,12.9375,17.24395751953125L12.9375,19.4969482421875C12.93994140625,20.635498046875,13.861328125,21.558349609375,15,21.5625L19.5,21.5625C20.638916015625,21.5592041015625,21.560791015625,20.6358642578125,21.5625,19.4969482421875L21.5625,17.24395751953125C21.56005859375,16.10540771484375,20.638427734375,15.1826171875,19.5,15.17852783203125M20.4375,19.4969482421875C20.436767578125,20.01470947265625,20.017578125,20.43438720703125,19.5,20.43603515625L15,20.43603515625C14.751220703125,20.43603515625,14.512451171875,20.3370361328125,14.336669921875,20.160888671875C14.16064453125,19.9847412109375,14.06201171875,19.74591064453125,14.0625,19.4969482421875L14.0625,17.24395751953125C14.063232421875,16.726318359375,14.482421875,16.306640625,15,16.30499267578125L19.5,16.30499267578125C19.748779296875,16.30499267578125,19.987548828125,16.4039306640625,20.163330078125,16.580078125C20.33935546875,16.7562255859375,20.437744140625,16.9951171875,20.4375,17.24395751953125ZM19.5,2.4375L15,2.4375C14.452392578125,2.4375,13.92724609375,2.65521240234375,13.54052734375,3.04266357421875C13.153564453125,3.43011474609375,12.936767578125,3.9554443359375,12.9375,4.50299072265625L12.9375,10.51123046875C12.939453125,11.65008544921875,13.861083984375,12.5733642578125,15,12.5775146484375L19.5,12.5775146484375C20.638916015625,12.57421875,21.560791015625,11.65087890625,21.5625,10.511962890625L21.5625,4.50299072265625C21.56005859375,3.36444091796875,20.638427734375,2.44158935546875,19.5,2.4375M20.4375,10.51123046875C20.43701171875,11.029052734375,20.017822265625,11.44903564453125,19.5,11.4501953125L15,11.4501953125C14.751220703125,11.4501953125,14.512451171875,11.35125732421875,14.336669921875,11.17510986328125C14.16064453125,10.99896240234375,14.06201171875,10.76019287109375,14.0625,10.51123046875L14.0625,4.50299072265625C14.063232421875,3.98529052734375,14.482421875,3.56561279296875,15,3.56396484375L19.5,3.56396484375C19.748779296875,3.56396484375,19.987548828125,3.66290283203125,20.163330078125,3.83905029296875C20.33935546875,4.01519775390625,20.437744140625,4.25408935546875,20.4375,4.50299072265625ZM9,2.4375L4.5,2.4375C3.952392578125,2.4375,3.42724609375,2.65521240234375,3.04052734375,3.04266357421875C2.653564453125,3.43011474609375,2.436767578125,3.9554443359375,2.4375,4.50299072265625L2.4375,6.75604248046875C2.43994140625,7.89459228515625,3.361328125,8.81732177734375,4.5,8.82147216796875L9,8.82147216796875C9.54736328125,8.82147216796875,10.072509765625,8.603759765625,10.45947265625,8.21630859375C10.846435546875,7.82891845703125,11.063232421875,7.30352783203125,11.0625,6.75604248046875L11.0625,4.50299072265625C11.06005859375,3.36444091796875,10.138427734375,2.44158935546875,9,2.4375M9.9375,6.75604248046875C9.936767578125,7.273681640625,9.517578125,7.693359375,9,7.69500732421875L4.5,7.69500732421875C4.251220703125,7.69500732421875,4.012451171875,7.59600830078125,3.836669921875,7.41986083984375C3.66064453125,7.24371337890625,3.56201171875,7.0048828125,3.5625,6.75604248046875L3.5625,4.50299072265625C3.563232421875,3.98529052734375,3.982421875,3.56561279296875,4.5,3.56396484375L9,3.56396484375C9.248779296875,3.56396484375,9.487548828125,3.66290283203125,9.663330078125,3.83905029296875C9.83935546875,4.01519775390625,9.937744140625,4.25408935546875,9.9375,4.50299072265625Z"/></g></g></g></svg>