<svg width="24" xmlns="http://www.w3.org/2000/svg" height="24" id="screenshot-a719a1ad-9cf5-8033-8007-f8708175fef8" viewBox="0 0 24 24" xmlns:xlink="http://www.w3.org/1999/xlink" fill="none" version="1.1"><g id="shape-a719a1ad-9cf5-8033-8007-f8708175fef8" width="32" height="32" rx="0" ry="0" style="fill: rgb(0, 0, 0);"><g id="shape-a719a1ad-9cf5-8033-8007-f8708175fef9" style="display: none;"><g class="fills" id="fills-a719a1ad-9cf5-8033-8007-f8708175fef9"><rect width="24" height="24" x="0" transform="matrix(1.000000, 0.000000, 0.000000, 1.000000, 0.000000, 0.000000)" style="fill: none;" ry="0" fill="none" rx="0" y="0"/></g></g><g id="shape-a719a1ad-9cf5-8033-8007-f8708175fefa"><g class="fills" id="fills-a719a1ad-9cf5-8033-8007-f8708175fefa"><path d="M20.25,20.4375L3.75,20.4375C3.439208984375,20.4375,3.1875,20.6893310546875,3.1875,21C3.1875,21.3106689453125,3.439208984375,21.5625,3.75,21.5625L20.25,21.5625C20.560791015625,21.5625,20.8125,21.3106689453125,20.8125,21C20.8125,20.6893310546875,20.560791015625,20.4375,20.25,20.4375M11.6025390625,15.39752197265625C11.822021484375,15.61688232421875,12.177978515625,15.61688232421875,12.3974609375,15.39752197265625L16.8974609375,10.89752197265625C17.10400390625,10.6759033203125,17.097900390625,10.33056640625,16.8837890625,10.1163330078125C16.66943359375,9.902099609375,16.32421875,9.89593505859375,16.1025390625,10.10247802734375L12.5625,13.6424560546875L12.5625,3C12.5625,2.6893310546875,12.310791015625,2.4375,12,2.4375C11.689208984375,2.4375,11.4375,2.6893310546875,11.4375,3L11.4375,13.6424560546875L7.8974609375,10.10247802734375C7.67578125,9.89593505859375,7.33056640625,9.902099609375,7.1162109375,10.1163330078125C6.902099609375,10.33056640625,6.89599609375,10.6759033203125,7.1025390625,10.89752197265625Z"/></g></g></g></svg>