<svg width="24" xmlns="http://www.w3.org/2000/svg" height="24" id="screenshot-a719a1ad-9cf5-8033-8007-f8748e952f22" viewBox="0 0 24 24" xmlns:xlink="http://www.w3.org/1999/xlink" fill="none" version="1.1"><g id="shape-a719a1ad-9cf5-8033-8007-f8748e952f22" width="32" height="32" rx="0" ry="0" style="fill: rgb(0, 0, 0);"><g id="shape-a719a1ad-9cf5-8033-8007-f8748e952f23" style="display: none;"><g class="fills" id="fills-a719a1ad-9cf5-8033-8007-f8748e952f23"><rect width="24" height="24" x="0" transform="matrix(1.000000, 0.000000, 0.000000, 1.000000, 0.000000, 0.000000)" style="fill: none;" ry="0" fill="none" rx="0" y="0"/></g></g><g id="shape-a719a1ad-9cf5-8033-8007-f8748e952f24"><g class="fills" id="fills-a719a1ad-9cf5-8033-8007-f8748e952f24"><path d="M4.5,6.5625L19.5,6.5625C19.810791015625,6.5625,20.0625,6.3106689453125,20.0625,6C20.0625,5.6893310546875,19.810791015625,5.4375,19.5,5.4375L4.5,5.4375C4.189208984375,5.4375,3.9375,5.6893310546875,3.9375,6C3.9375,6.3106689453125,4.189208984375,6.5625,4.5,6.5625M19.5,11.4375L4.5,11.4375C4.189208984375,11.4375,3.9375,11.6893310546875,3.9375,12C3.9375,12.3106689453125,4.189208984375,12.5625,4.5,12.5625L19.5,12.5625C19.810791015625,12.5625,20.0625,12.3106689453125,20.0625,12C20.0625,11.6893310546875,19.810791015625,11.4375,19.5,11.4375M19.5,17.4375L4.5,17.4375C4.189208984375,17.4375,3.9375,17.6893310546875,3.9375,18C3.9375,18.3106689453125,4.189208984375,18.5625,4.5,18.5625L19.5,18.5625C19.810791015625,18.5625,20.0625,18.3106689453125,20.0625,18C20.0625,17.6893310546875,19.810791015625,17.4375,19.5,17.4375"/></g></g></g></svg>