<svg width="24" xmlns="http://www.w3.org/2000/svg" height="24" id="screenshot-a719a1ad-9cf5-8033-8007-f873555cc47b" viewBox="0 0 24 24" xmlns:xlink="http://www.w3.org/1999/xlink" fill="none" version="1.1"><g id="shape-a719a1ad-9cf5-8033-8007-f873555cc47b" width="32" height="32" rx="0" ry="0" style="fill: rgb(0, 0, 0);"><g id="shape-a719a1ad-9cf5-8033-8007-f873555cc47c" style="display: none;"><g class="fills" id="fills-a719a1ad-9cf5-8033-8007-f873555cc47c"><rect width="24" height="24" x="0" transform="matrix(1.000000, 0.000000, 0.000000, 1.000000, 0.000000, 0.000000)" style="fill: none;" ry="0" fill="none" rx="0" y="0"/></g></g><g id="shape-a719a1ad-9cf5-8033-8007-f873555cc47d"><g class="fills" id="fills-a719a1ad-9cf5-8033-8007-f873555cc47d"><path d="M21.447021484375,11.657958984375C21.275390625,11.43450927734375,17.19677734375,6.1875,12,6.1875C6.802978515625,6.1875,2.724609375,11.43450927734375,2.553466796875,11.657958984375C2.39892578125,11.85986328125,2.39892578125,12.14019775390625,2.553466796875,12.342041015625C2.724609375,12.5648193359375,6.80224609375,17.8125,12,17.8125C17.197509765625,17.8125,21.275390625,12.5648193359375,21.447021484375,12.342041015625C21.6015625,12.14019775390625,21.6015625,11.85986328125,21.447021484375,11.657958984375M12,16.6875C8.08251953125,16.6875,4.706787109375,13.13250732421875,3.73046875,12C4.706787109375,10.86676025390625,8.08251953125,7.3125,12,7.3125C15.91796875,7.3125,19.29443359375,10.86749267578125,20.270751953125,12C19.2958984375,13.13323974609375,15.926025390625,16.6875,12,16.6875M12,9.1875C10.97998046875,9.16400146484375,10.027099609375,9.69464111328125,9.510009765625,10.57427978515625C8.993408203125,11.4539794921875,8.993408203125,12.5445556640625,9.510009765625,13.4241943359375C10.027099609375,14.3038330078125,10.97998046875,14.8345947265625,12,14.81103515625C13.53515625,14.78594970703125,14.7666015625,13.53424072265625,14.7666015625,11.9989013671875C14.7666015625,10.4635009765625,13.53515625,9.21185302734375,12,9.186767578125M12,13.686767578125C11.06787109375,13.686767578125,10.3125,12.9312744140625,10.3125,11.999267578125C10.3125,11.0672607421875,11.06787109375,10.311767578125,12,10.311767578125C12.931884765625,10.311767578125,13.6875,11.0672607421875,13.6875,11.999267578125C13.6875,12.9312744140625,12.931884765625,13.686767578125,12,13.686767578125"/></g></g></g></svg>