<svg width="24" xmlns="http://www.w3.org/2000/svg" height="24" id="screenshot-a719a1ad-9cf5-8033-8007-f862fcbdcd97" viewBox="0 0 24 24" xmlns:xlink="http://www.w3.org/1999/xlink" fill="none" version="1.1"><g id="shape-a719a1ad-9cf5-8033-8007-f862fcbdcd97" width="32" height="32" rx="0" ry="0" style="fill: rgb(0, 0, 0);"><g id="shape-a719a1ad-9cf5-8033-8007-f862fcbdcd98" style="display: none;"><g class="fills" id="fills-a719a1ad-9cf5-8033-8007-f862fcbdcd98"><rect width="24" height="24" x="0" transform="matrix(1.000000, 0.000000, 0.000000, 1.000000, 0.000000, 0.000000)" style="fill: none;" ry="0" fill="none" rx="0" y="0"/></g></g><g id="shape-a719a1ad-9cf5-8033-8007-f862fcbdcd99"><g class="fills" id="fills-a719a1ad-9cf5-8033-8007-f862fcbdcd99"><path d="M12,1.6875C6.3046875,1.6875,1.6875,6.3045654296875,1.6875,12C1.6875,17.6954345703125,6.3046875,22.31256103515625,12,22.31256103515625C17.695556640625,22.31256103515625,22.3125,17.6954345703125,22.3125,12C22.306396484375,6.30712890625,17.69287109375,1.69366455078125,12,1.6875M12,2.8125C15.582275390625,2.807861328125,18.83984375,4.8883056640625,20.34228515625,8.1402587890625C21.8447265625,11.39227294921875,21.317138671875,15.2213134765625,18.991455078125,17.946044921875C18.03076171875,16.105712890625,16.386962890625,14.71533203125,14.412841796875,14.072998046875C15.984375,13.012451171875,16.678955078125,11.0499267578125,16.124267578125,9.23699951171875C15.56982421875,7.424072265625,13.896240234375,6.18585205078125,12.00048828125,6.18585205078125C10.1044921875,6.18585205078125,8.43115234375,7.424072265625,7.87646484375,9.23699951171875C7.322021484375,11.0499267578125,8.0166015625,13.012451171875,9.588134765625,14.072998046875C7.61376953125,14.7149658203125,5.9697265625,16.1051025390625,5.008544921875,17.9453125C2.68408203125,15.2203369140625,2.1572265625,11.3919677734375,3.65966796875,8.14056396484375C5.16162109375,4.88909912109375,8.41845703125,2.8087158203125,12,2.8125M8.8125,10.5C8.8125,8.73956298828125,10.23974609375,7.3125,12,7.3125C13.760498046875,7.3125,15.1875,8.73956298828125,15.1875,10.5C15.1875,12.26043701171875,13.760498046875,13.6875,12,13.6875C10.23974609375,13.6875,8.8125,12.26043701171875,8.8125,10.5M5.85400390625,18.80926513671875C6.93212890625,16.378662109375,9.341064453125,14.811767578125,12,14.811767578125C14.6591796875,14.811767578125,17.068115234375,16.378662109375,18.146240234375,18.80926513671875C14.662353515625,21.980224609375,9.337890625,21.980224609375,5.85400390625,18.80926513671875"/></g></g></g></svg>